<svg viewBox="0 0 373 150" fill="none" xmlns="http://www.w3.org/2000/svg">
<path fill-rule="evenodd" clip-rule="evenodd" d="M223.17 52.0825C232.053 49.2732 238.515 40.6601 238.515 30.4682C238.515 25.4204 236.931 20.758 234.254 17C225.953 17.593 218.945 23.0707 215.842 30.7054C214.741 33.4183 214.13 36.398 214.13 39.526C214.13 44.5738 215.714 49.2362 218.391 52.9942H218.398C220.053 52.883 221.643 52.5643 223.17 52.0825ZM209.884 39.5262C209.884 44.322 211.077 48.8213 213.172 52.7202C202.989 50.8893 195.242 41.6239 195.242 30.4684C195.242 29.0674 195.363 27.6962 195.604 26.3619C197.593 25.7319 199.709 25.3909 201.896 25.3909C205.659 25.3909 209.203 26.399 212.284 28.1631C210.743 31.6173 209.884 35.4643 209.884 39.5262ZM214.933 56.2632H172.477C152.332 56.2632 136 73.3041 136 94.3329C136 115.362 152.332 132.41 172.477 132.41H214.933C235.078 132.41 251.41 115.362 251.41 94.3329C251.41 73.3041 235.078 56.2632 214.933 56.2632ZM214.138 128.044C196.307 128.044 181.85 112.953 181.85 94.3403C181.85 75.7279 196.307 60.6365 214.138 60.6365C231.968 60.6365 246.425 75.7279 246.425 94.3403C246.425 112.953 231.968 128.044 214.138 128.044Z" fill="#34C759"/>
</svg>
